<svg xmlns="http://www.w3.org/2000/svg" width="18.51" height="17.638" viewBox="0 0 18.51 17.638">
  <g id="Group_29" data-name="Group 29" transform="translate(-711 -1202)">
    <path id="Path_7" data-name="Path 7" d="M94.322,25.951,88.97,29.824,91.023,36.1a.318.318,0,0,1-.489.356L85.2,32.565l-5.337,3.895a.318.318,0,0,1-.489-.356l2.053-6.28-5.352-3.873a.319.319,0,0,1,.186-.575l6.606.013,2.03-6.288a.318.318,0,0,1,.6,0l2.031,6.287,6.605-.012a.319.319,0,0,1,.186.575Z" transform="translate(635.059 1183.118)" fill="#ef6614"/>
  </g>
</svg>
