<svg xmlns="http://www.w3.org/2000/svg" width="46" height="46" viewBox="0 0 46 46">
  <g id="Group_20761" data-name="Group 20761" transform="translate(-553 -194.711)">
    <g id="Ellipse_4022" data-name="Ellipse 4022" transform="translate(553 194.711)" fill="#fff" stroke="#e1e7eb" stroke-width="1">
      <circle cx="23" cy="23" r="23" stroke="none"/>
      <circle cx="23" cy="23" r="22.5" fill="none"/>
    </g>
    <g id="noun-arrow-swap-vertical-4894945" transform="translate(585.298 208.921) rotate(90)">
      <path id="Path_7" data-name="Path 7" d="M5.878,6.644a.757.757,0,0,1-.541-.225L.222,1.3A.765.765,0,0,1,1.3.222L6.419,5.337a.77.77,0,0,1,0,1.082.8.8,0,0,1-.541.225Z" transform="translate(0 12.243)" fill="#2196f3"/>
      <path id="Path_8" data-name="Path 8" d="M.766,18.887A.771.771,0,0,1,0,18.121V.766A.771.771,0,0,1,.766,0a.771.771,0,0,1,.766.766V18.121A.771.771,0,0,1,.766,18.887Z" transform="translate(5.112 0)" fill="#2196f3"/>
      <path id="Path_9" data-name="Path 9" d="M5.878,6.644a.757.757,0,0,1-.541-.225L.222,1.3A.765.765,0,0,1,1.3.222L6.419,5.337a.77.77,0,0,1,0,1.082.757.757,0,0,1-.541.225Z" transform="translate(11.23 0.003)" fill="#2196f3"/>
      <path id="Path_10" data-name="Path 10" d="M.766,18.887A.771.771,0,0,1,0,18.121V.766A.771.771,0,0,1,.766,0a.771.771,0,0,1,.766.766V18.121A.765.765,0,0,1,.766,18.887Z" transform="translate(11.218 0)" fill="#2196f3"/>
    </g>
  </g>
</svg>
