<svg width="14" height="14" viewBox="0 0 14 14" fill="none" xmlns="http://www.w3.org/2000/svg">
<g id="ant-design:swap-outlined">
<path id="Vector" d="M5.90625 11.5924L5.90625 2.07816C5.90625 2.018 5.85703 1.96878 5.79687 1.96878L4.97656 1.96878C4.91641 1.96878 4.86719 2.018 4.86719 2.07816L4.86719 10.3524L2.36523 8.37953C2.29414 8.32347 2.1875 8.37406 2.1875 8.46566L2.1875 9.45687C2.1875 9.52386 2.21758 9.58675 2.2709 9.62914L5.19805 11.9369C5.48516 12.1625 5.90625 11.9588 5.90625 11.5924ZM9.13281 11.9219L9.13281 3.64769L11.6348 5.62054C11.7059 5.6766 11.8125 5.62601 11.8125 5.53441L11.8125 4.5432C11.8125 4.47621 11.7824 4.41332 11.7291 4.37093L8.80195 2.06312C8.51484 1.83753 8.09375 2.04125 8.09375 2.40628L8.09375 11.9219C8.09375 11.9821 8.14297 12.0313 8.20312 12.0313L9.02344 12.0313C9.08359 12.0313 9.13281 11.9821 9.13281 11.9219Z" fill="#ED1C24"/>
</g>
</svg>
