<svg width="16" height="16" viewBox="0 0 16 16" fill="none" xmlns="http://www.w3.org/2000/svg">
<g id="cil:clock" clip-path="url(#clip0_38_76)">
<path id="Vector" d="M8.4848 2.98438H7.4848V8.55034L11.0977 10.2675L11.527 9.36428L8.4848 7.91841V2.98438Z" fill="#ED1C24"/>
<path id="Vector_2" d="M8 0.5C3.85787 0.5 0.5 3.85787 0.5 8C0.5 12.1421 3.85787 15.5 8 15.5C12.1421 15.5 15.5 12.1421 15.5 8C15.5 3.85787 12.1421 0.5 8 0.5ZM8 14.5C4.41016 14.5 1.5 11.5898 1.5 8C1.5 4.41016 4.41016 1.5 8 1.5C11.5898 1.5 14.5 4.41016 14.5 8C14.5 11.5898 11.5898 14.5 8 14.5Z" fill="#ED1C24"/>
</g>
<defs>
<clipPath id="clip0_38_76">
<rect width="16" height="16" fill="white"/>
</clipPath>
</defs>
</svg>
